<svg id="wave" style="transform:rotate(0deg); transition: 0.3s" viewBox="0 0 1440 220" version="1.1" xmlns="http://www.w3.org/2000/svg"><defs><linearGradient id="sw-gradient-0" x1="0" x2="0" y1="1" y2="0"><stop stop-color="rgba(212, 146, 10, 1)" offset="0%"></stop><stop stop-color="rgba(212, 146, 10, 1)" offset="100%"></stop></linearGradient></defs><path style="transform:translate(0, 0px); opacity:1" fill="url(#sw-gradient-0)" d="M0,44L12,69.7C24,95,48,147,72,150.3C96,154,120,110,144,91.7C168,73,192,81,216,95.3C240,110,264,132,288,146.7C312,161,336,169,360,176C384,183,408,191,432,172.3C456,154,480,110,504,91.7C528,73,552,81,576,99C600,117,624,147,648,161.3C672,176,696,176,720,165C744,154,768,132,792,110C816,88,840,66,864,62.3C888,59,912,73,936,88C960,103,984,117,1008,110C1032,103,1056,73,1080,77C1104,81,1128,117,1152,132C1176,147,1200,139,1224,117.3C1248,95,1272,59,1296,36.7C1320,15,1344,7,1368,7.3C1392,7,1416,15,1440,29.3C1464,44,1488,66,1512,73.3C1536,81,1560,73,1584,66C1608,59,1632,51,1656,40.3C1680,29,1704,15,1716,7.3L1728,0L1728,220L1716,220C1704,220,1680,220,1656,220C1632,220,1608,220,1584,220C1560,220,1536,220,1512,220C1488,220,1464,220,1440,220C1416,220,1392,220,1368,220C1344,220,1320,220,1296,220C1272,220,1248,220,1224,220C1200,220,1176,220,1152,220C1128,220,1104,220,1080,220C1056,220,1032,220,1008,220C984,220,960,220,936,220C912,220,888,220,864,220C840,220,816,220,792,220C768,220,744,220,720,220C696,220,672,220,648,220C624,220,600,220,576,220C552,220,528,220,504,220C480,220,456,220,432,220C408,220,384,220,360,220C336,220,312,220,288,220C264,220,240,220,216,220C192,220,168,220,144,220C120,220,96,220,72,220C48,220,24,220,12,220L0,220Z"></path></svg>